<svg width="585" height="300" fill="none" xmlns="http://www.w3.org/2000/svg"><path d="M582.921 287.683s-103.789.913-240.277 1.124v-2.248c136.488.176 240.277 1.124 240.277 1.124zm-340.157 1.124c-136.489-.211-240.277-1.124-240.277-1.124s103.788-.948 240.277-1.124v2.248zm31.513-12.33l-5.339 18.162c-.245.948-.384 1.545-.384 1.791 0 .281.07.527.279.808.209.281.419.457.628.527.245.105.908.176 2.059.211l-.174.562h-10.854l.175-.562c1.082 0 1.849-.106 2.268-.246.419-.176.768-.422 1.012-.808.279-.351.594-1.124.943-2.283l3.14-10.785c.489-1.616.733-2.494.768-2.6.07-.281.105-.526.105-.772 0-.492-.14-.879-.454-1.16-.279-.281-.698-.421-1.221-.421-.279 0-.803.035-1.606.14l-.104-.597 8.096-1.967h.663zm3.036 22.518v-.633c1.606-.456 3.106-1.335 4.502-2.634 1.396-1.3 2.653-3.197 3.769-5.691-.977.351-1.849.527-2.547.527-1.187 0-2.199-.457-3.001-1.37-.803-.914-1.222-2.178-1.222-3.829 0-2.108.628-4.075 1.815-5.832 1.431-2.143 3.385-3.197 5.793-3.197 1.64 0 3.001.562 3.978 1.687 1.013 1.124 1.536 2.74 1.536 4.847 0 2.249-.489 4.427-1.501 6.499-.977 2.108-2.233 3.864-3.769 5.305-1.5 1.44-3.141 2.529-4.851 3.267-1.361.597-2.861.948-4.502 1.054zm8.795-10.153a42.712 42.712 0 001.78-5.796c.314-1.37.488-2.459.488-3.337 0-.808-.174-1.405-.523-1.827-.349-.386-.803-.597-1.291-.597-.419 0-.803.176-1.117.457-.559.491-1.047 1.475-1.536 2.95-.733 2.319-1.082 4.251-1.082 5.797 0 .772.21 1.44.664 1.967.314.421.732.632 1.221.632.349 0 .838-.105 1.396-.246zm10.121-2.002l.209-.703c1.501-.21 2.687-.527 3.594-.948 1.222-.527 2.094-1.159 2.618-1.862.558-.703.837-1.475.837-2.283 0-.703-.279-1.335-.767-1.827-.489-.492-1.082-.738-1.85-.738-.558 0-1.082.141-1.605.457-.489.316-1.012.843-1.606 1.616l-.628-.316c.873-1.335 1.78-2.319 2.652-2.881.908-.597 1.92-.878 3.002-.878 1.396 0 2.547.386 3.42 1.194.872.808 1.291 1.757 1.291 2.846 0 .878-.209 1.651-.628 2.283-.419.668-1.047 1.23-1.885 1.721-.593.352-1.535.703-2.826 1.054 1.151.527 1.989 1.089 2.477 1.722.698.948 1.047 2.107 1.047 3.442 0 2.494-1.082 4.567-3.245 6.218-1.78 1.405-3.874 2.073-6.247 2.073-1.291 0-2.234-.246-2.862-.703-.453-.351-.663-.773-.663-1.335 0-.492.14-.878.489-1.194a1.823 1.823 0 011.256-.492c.244 0 .489.07.733.176.384.175 1.012.527 1.815 1.054.802.562 1.465.843 1.989.843.628 0 1.221-.352 1.71-1.019.733-.984 1.117-2.213 1.117-3.724 0-1.159-.245-2.178-.733-3.021-.454-.878-1.047-1.546-1.78-1.932-.733-.422-1.71-.703-2.931-.843zm28.686-10.504v.598a10.469 10.469 0 00-4.292 2.424c-1.536 1.44-2.862 3.407-3.979 5.901 1.012-.316 1.85-.492 2.548-.492 1.221 0 2.198.457 3.001 1.37.803.879 1.187 2.143 1.187 3.794 0 2.143-.594 4.075-1.78 5.867-1.431 2.143-3.385 3.197-5.793 3.197-1.641 0-2.967-.563-3.979-1.687-1.012-1.159-1.5-2.775-1.5-4.847a15.1 15.1 0 011.465-6.499c.977-2.108 2.234-3.864 3.769-5.305a16.94 16.94 0 014.886-3.302 14.114 14.114 0 014.467-1.019zm-8.759 10.153a42.571 42.571 0 00-1.78 5.796c-.314 1.335-.489 2.459-.489 3.337 0 .808.175 1.405.524 1.792.349.421.767.597 1.291.597.419 0 .768-.141 1.082-.422.558-.491 1.047-1.475 1.535-2.95.698-2.319 1.082-4.251 1.082-5.797 0-.773-.209-1.44-.663-1.967-.314-.421-.733-.632-1.186-.632-.384 0-.838.07-1.396.246zM2.557 222.098v23.466h2.512l4.328-11.311c.907-2.389 1.989-4.954 2.791-7.869h.07c-.21 3.126-.279 6.042-.279 11.065v8.115h2.408v-23.466H11.91l-4.187 10.96c-.978 2.529-2.2 5.656-3.002 8.185h-.07c.21-3.688.315-6.674.315-10.749v-8.396H2.557zm18.46 23.466h2.653v-21.077h4.223v-2.389H16.795v2.389h4.223v21.077zm15.426-7.026l1.536 7.026h2.617l-5.165-23.466h-2.896l-5.305 23.466h2.547l1.536-7.026h5.13zm-4.746-2.178l1.186-5.937c.314-1.58.663-3.583.943-5.374h.14c.279 1.756.593 3.688.942 5.374l1.186 5.937h-4.397zm12.878-14.262v10.714c0 5.796-.384 8.888-1.78 10.117-.35.316-.803.492-1.257.598l.524 2.283a3.4 3.4 0 002.129-.738c2.617-1.862 2.826-6.534 2.826-12.646v-8.01h4.886v21.148h2.653v-23.466h-9.981zm14.133 0v23.361c.733.14 1.78.245 3.455.245 2.792 0 4.886-.878 6.247-2.459 1.047-1.229 1.64-2.845 1.64-4.953 0-4.285-2.687-6.955-6.91-6.955-.697 0-1.29.035-1.78.07v-9.309h-2.652zm2.653 11.557a7.55 7.55 0 011.326-.105c2.862 0 4.641 2.002 4.641 4.883 0 2.916-1.71 5.058-4.676 5.058-.454 0-.838 0-1.291-.105v-9.731zm12.807 11.909c.28-.667.454-1.37.594-2.073.488-2.107.698-5.585 1.92-7.096.662-.843 1.57-1.089 2.651-1.089h.943v10.258h2.652v-23.15c-1.117-.316-2.513-.421-3.769-.421-1.885 0-3.455.491-4.642 1.405-1.36 1.054-2.268 2.845-2.268 5.164 0 3.161 1.71 5.023 3.944 5.726v.07a3.692 3.692 0 00-1.78 1.124c-1.536 1.897-1.64 5.199-2.234 7.623-.21.878-.453 1.721-.767 2.459h2.756zm6.108-12.33c-.35.035-.593.035-.908.035-2.547 0-4.432-1.792-4.432-4.637 0-2.529 1.257-4.497 3.979-4.497.628 0 1.012.071 1.36.141v8.958zm6.805-11.136v23.466h2.652v-10.96h6.492v10.96h2.652v-23.466h-2.652v10.047h-6.492v-10.047h-2.652zm25.651 20.761c-.559.281-1.466.527-2.443.527-2.827 0-5.445-2.354-5.445-9.52 0-7.166 2.897-9.625 5.375-9.625 1.186 0 1.78.246 2.338.492l.593-2.249c-.488-.316-1.5-.597-2.896-.597-3.665 0-8.201 2.951-8.201 12.225 0 7.974 3.245 11.663 7.782 11.663 1.431 0 2.582-.246 3.315-.633l-.418-2.283zm3.14-20.761v23.466h2.618v-10.82h.384c2.757 0 3.559 2.143 4.118 4.953.419 2.003.768 4.321 1.326 5.867h2.687c-.698-2.037-1.047-4.321-1.535-6.534-.594-2.845-1.536-5.304-4.363-5.937l5.654-10.995h-2.862l-4.956 10.644h-.453v-10.644h-2.618zm18.985-.281c-4.048 0-6.805 4.215-6.805 11.979 0 7.904 2.583 12.049 6.421 12.049 3.735 0 6.736-3.372 6.736-12.19 0-7.482-2.373-11.838-6.352-11.838zm-.244 2.354c3.036 0 3.839 5.199 3.839 9.59 0 4.602-.803 9.695-3.804 9.695-2.932 0-3.839-4.777-3.839-9.625 0-4.778.907-9.66 3.804-9.66zm18.217 7.974h-5.793v-7.729h6.177v-2.318h-8.829v23.466h9.248v-2.354h-6.596v-8.782h5.793v-2.283zm24.499-10.047v23.361c.733.14 1.745.245 3.49.245 2.722 0 4.851-.807 6.177-2.388 1.082-1.195 1.675-2.916 1.675-5.024 0-2.213-.733-3.934-1.989-5.128-1.187-1.195-2.932-1.827-4.956-1.827-.593 0-1.152.035-1.745.105v-7.026h7.189v-2.318h-9.841zm2.652 11.557c.454-.07.908-.105 1.291-.105 1.466 0 2.618.562 3.421 1.44.802.843 1.256 2.038 1.256 3.443 0 1.37-.384 2.564-1.082 3.478-.768.983-1.954 1.58-3.56 1.58-.453 0-.872 0-1.326-.105v-9.731zm17.589-11.838c-4.048 0-6.805 4.215-6.805 11.979 0 7.904 2.582 12.049 6.421 12.049 3.734 0 6.736-3.372 6.736-12.19 0-7.482-2.373-11.838-6.352-11.838zm-.244 2.354c3.036 0 3.839 5.199 3.839 9.59 0 4.602-.803 9.695-3.804 9.695-2.932 0-3.839-4.777-3.839-9.625 0-4.778.907-9.66 3.804-9.66zm9.737 21.393h2.652v-9.625c.384.035.733.035 1.186.035 2.059 0 4.188-.843 5.48-2.6.907-1.194 1.395-2.634 1.395-4.812 0-2.003-.558-3.724-1.71-4.813-1.221-1.229-3.001-1.756-5.13-1.756-1.5 0-2.792.175-3.873.456v23.115zm2.652-21.218c.349-.105.872-.175 1.5-.175 2.932 0 3.909 2.178 3.909 4.566 0 3.302-1.745 5.059-4.362 5.059-.454 0-.733-.035-1.047-.106v-9.344zm9.074-2.248l5.199 15.773c.175.527.175.948.035 1.335-.488 1.686-1.745 4.356-3.664 4.356-.279 0-.489-.035-.663-.071l-.14 2.213c.349.106.733.141 1.222.141 1.745 0 3.35-1.37 4.362-3.372 1.605-3.162 2.548-7.342 3.281-9.942l2.757-10.433h-2.688l-2.059 9.45c-.314 1.475-.593 3.021-.872 4.145h-.105c-.314-1.3-.593-2.6-1.047-4.075l-2.757-9.52h-2.861zm15.529 0v5.304c0 3.408-.174 6.499-.732 9.52a30.952 30.952 0 01-1.85 6.323l-1.536.036.105 7.131h2.129l.139-4.848h10.226l.174 4.848h2.094l.14-7.131-1.571-.036v-21.147h-9.318zm2.408 2.318h4.293v18.794h-6.561a35.289 35.289 0 001.64-5.936c.489-2.881.628-6.043.628-9.345v-3.513zm17.24-2.599c-4.048 0-6.805 4.215-6.805 11.979 0 7.904 2.583 12.049 6.456 12.049 3.7 0 6.701-3.372 6.701-12.19 0-7.482-2.373-11.838-6.352-11.838zm-.244 2.354c3.036 0 3.839 5.199 3.839 9.59 0 4.602-.803 9.695-3.804 9.695-2.897 0-3.839-4.777-3.839-9.625 0-4.778.942-9.66 3.804-9.66zm9.772 21.288c.698.14 1.745.245 3.455.245 2.652 0 4.851-.632 6.142-2.142 1.047-1.124 1.64-2.705 1.64-4.637 0-3.092-1.605-5.27-4.292-6.007v-.071c2.268-.913 3.594-2.81 3.594-5.234 0-1.651-.523-3.056-1.535-3.969-1.222-1.195-3.037-1.651-5.131-1.651-1.465 0-2.791.175-3.873.456v23.01zm2.652-21.218c.314-.106.768-.176 1.396-.176 2.827 0 3.839 1.686 3.839 3.829 0 2.494-1.885 4.145-4.048 4.145h-1.187v-7.798zm0 9.871h1.152c2.477.035 4.711 1.546 4.711 4.813 0 3.021-1.78 4.637-4.537 4.637a5.862 5.862 0 01-1.326-.141v-9.309zm19.578 4.426l1.571 7.026h2.617l-5.165-23.466h-2.932l-5.304 23.466h2.547l1.536-7.026h5.13zm-4.746-2.178l1.221-5.937c.28-1.58.629-3.583.908-5.374h.139c.279 1.756.594 3.688.943 5.374l1.186 5.937h-4.397zm11.796-14.262v23.466h2.652v-10.96h6.526v10.96h2.652v-23.466h-2.652v10.047h-6.526v-10.047h-2.652zm15.948 0v23.466h2.513l4.362-11.311c.873-2.389 1.955-4.954 2.792-7.869h.07c-.209 3.126-.279 6.042-.279 11.065v8.115h2.373v-23.466h-2.478l-4.188 10.96c-.942 2.529-2.198 5.656-3.001 8.185h-.035c.175-3.688.279-6.674.279-10.749v-8.396h-2.408zm24.464 10.047h-5.828v-7.729h6.212v-2.318h-8.864v23.466h9.283v-2.354h-6.631v-8.782h5.828v-2.283zm11.517-10.047v5.304c0 3.408-.14 6.499-.698 9.52a31.027 31.027 0 01-1.885 6.323l-1.535.036.139 7.131h2.094l.14-4.848h10.26l.175 4.848h2.059l.139-7.131-1.535-.036v-21.147h-9.353zm2.443 2.318h4.292v18.794h-6.596c.698-1.861 1.292-3.864 1.676-5.936.488-2.881.628-6.043.628-9.345v-3.513zm12.563-2.318v10.714c0 5.796-.384 8.888-1.814 10.117-.315.316-.768.492-1.222.598l.524 2.283c.802 0 1.535-.281 2.128-.738 2.618-1.862 2.827-6.534 2.827-12.646v-8.01h4.886v21.148h2.652v-23.466h-9.981zm15.216 23.466c.314-.667.489-1.37.628-2.073.454-2.107.663-5.585 1.885-7.096.698-.843 1.57-1.089 2.652-1.089h.977v10.258h2.618v-23.15c-1.117-.316-2.513-.421-3.769-.421-1.85 0-3.455.491-4.607 1.405-1.396 1.054-2.269 2.845-2.269 5.164 0 3.161 1.676 5.023 3.909 5.726v.07c-.663.176-1.291.597-1.745 1.124-1.57 1.897-1.675 5.199-2.233 7.623-.21.878-.454 1.721-.803 2.459h2.757zm6.142-12.33c-.349.035-.593.035-.942.035-2.548 0-4.397-1.792-4.397-4.637 0-2.529 1.221-4.497 3.943-4.497.628 0 1.047.071 1.396.141v8.958zm21.882 9.625c-.559.281-1.431.527-2.443.527-2.827 0-5.444-2.354-5.444-9.52 0-7.166 2.896-9.625 5.374-9.625 1.221 0 1.78.246 2.338.492l.593-2.249c-.488-.316-1.5-.597-2.896-.597-3.665 0-8.201 2.951-8.201 12.225 0 7.974 3.245 11.663 7.782 11.663 1.466 0 2.583-.246 3.315-.633l-.418-2.283zm11.272-4.321l1.535 7.026h2.618l-5.165-23.466h-2.932l-5.304 23.466h2.547l1.571-7.026h5.13zm-4.746-2.178l1.186-5.937c.314-1.58.663-3.583.943-5.374h.139c.279 1.756.558 3.688.907 5.374l1.222 5.937h-4.397zm12.877-14.262v10.714c0 5.796-.384 8.888-1.814 10.117-.349.316-.768.492-1.222.598l.524 2.283c.802 0 1.535-.281 2.128-.738 2.618-1.862 2.827-6.534 2.827-12.646v-8.01h4.886v21.148h2.652v-23.466h-9.981zm19.997-.281c-4.083 0-6.805 4.215-6.805 11.979 0 7.904 2.582 12.049 6.421 12.049 3.734 0 6.701-3.372 6.701-12.19 0-7.482-2.373-11.838-6.317-11.838zm-.244 2.354c3.036 0 3.839 5.199 3.839 9.59 0 4.602-.803 9.695-3.804 9.695-2.932 0-3.874-4.777-3.874-9.625 0-4.778.942-9.66 3.839-9.66zm9.737-2.073v23.466h2.652v-10.96h6.526v10.96h2.652v-23.466h-2.652v10.047h-6.526v-10.047h-2.652zm23.87 16.44l1.536 7.026h2.617l-5.165-23.466h-2.896l-5.305 23.466h2.548l1.535-7.026h5.13zm-4.746-2.178l1.187-5.937c.314-1.58.663-3.583.942-5.374h.139c.28 1.756.594 3.688.943 5.374l1.186 5.937h-4.397zm17.205-14.262v23.466h2.618v-10.82h.418c2.757 0 3.56 2.143 4.118 4.953.384 2.003.768 4.321 1.326 5.867h2.688c-.733-2.037-1.082-4.321-1.536-6.534-.593-2.845-1.535-5.304-4.397-5.937l5.688-10.995h-2.861l-4.956 10.644h-.488v-10.644h-2.618zm13.471 23.466h2.652v-9.625c.384.035.733.035 1.187.035 2.059 0 4.188-.843 5.479-2.6.872-1.194 1.396-2.634 1.396-4.812 0-2.003-.593-3.724-1.71-4.813-1.222-1.229-3.001-1.756-5.13-1.756-1.536 0-2.792.175-3.874.456v23.115zm2.652-21.218c.349-.105.873-.175 1.501-.175 2.897 0 3.909 2.178 3.909 4.566 0 3.302-1.745 5.059-4.363 5.059a4.34 4.34 0 01-1.047-.106v-9.344zm17.17 14.192l1.536 7.026h2.617l-5.165-23.466h-2.931l-5.305 23.466h2.548l1.535-7.026h5.165zm-4.781-2.178l1.222-5.937c.314-1.58.663-3.583.942-5.374h.105c.279 1.756.593 3.688.942 5.374l1.221 5.937h-4.432zm20.835 6.499c-.524.281-1.431.527-2.443.527-2.827 0-5.444-2.354-5.444-9.52 0-7.166 2.896-9.625 5.374-9.625 1.222 0 1.815.246 2.338.492l.594-2.249c-.489-.316-1.466-.597-2.897-.597-3.629 0-8.201 2.951-8.201 12.225 0 7.974 3.245 11.663 7.782 11.663 1.466 0 2.583-.246 3.316-.633l-.419-2.283zm8.41-21.042c-4.048 0-6.805 4.215-6.805 11.979 0 7.904 2.583 12.049 6.421 12.049 3.735 0 6.736-3.372 6.736-12.19 0-7.482-2.373-11.838-6.352-11.838zm-.244 2.354c3.036 0 3.839 5.199 3.839 9.59 0 4.602-.803 9.695-3.804 9.695-2.932 0-3.839-4.777-3.839-9.625 0-4.778.907-9.66 3.804-9.66zm11.691 21.393h2.652v-21.077h4.223v-2.389h-11.133v2.389h4.258v21.077zm9.458-23.466v23.361c.733.14 1.745.245 3.35.245 2.757 0 4.886-.878 6.212-2.459 1.047-1.229 1.675-2.88 1.675-4.988 0-4.215-2.757-6.92-6.91-6.92-.488 0-1.117.035-1.675.105v-9.344h-2.652zm2.652 11.557c.384-.07.838-.105 1.291-.105 2.722 0 4.537 1.967 4.537 4.883s-1.675 5.058-4.572 5.058c-.418 0-.802 0-1.256-.105v-9.731zm10.714-11.557v23.466h2.652v-23.466h-2.652zm-412.363-.281c-4.083 0-6.84 4.215-6.84 11.979 0 7.904 2.583 12.049 6.457 12.049 3.699 0 6.7-3.372 6.7-12.19 0-7.482-2.373-11.838-6.317-11.838zm-.244 2.354c3.001 0 3.804 5.199 3.804 9.59 0 4.602-.803 9.695-3.769 9.695-2.931 0-3.874-4.777-3.874-9.625 0-4.778.943-9.66 3.839-9.66zm316.042-122.249l-25.86 93.759h101.137l25.86-93.759H483.634zm-371.67 90.141c6.386-.668 8.864-4.251 11.412-13.349 7.433-26.417 18.007-63.513 18.252-67.447.314-4.883-4.223-5.691-9.772-5.832l.942-3.513h27.605l4.991 68.01h.244l41.948-67.975h26.349l-.978 3.513c-6.072.281-9.038 2.705-11.063 9.626-2.024 6.92-17.903 61.616-18.321 68.395-.314 4.883 2.931 8.08 9.946 8.607l-.977 3.513h-37.865l.942-3.513c8.864-1.23 11.272-5.48 13.575-14.298l16.822-62.318-.245-.105-49.626 80.304h-3.838l-5.514-79.953h-.245c-7.852 31.3-16.402 57.576-16.96 66.534-.384 6.639 4.362 8.993 10.364 9.801l-.942 3.513h-27.989l.943-3.513zm145.771-47.986c.21-4.426-1.047-7.799-5.793-7.834-10.853 0-21.044 28.279-21.672 40.785-.349 6.78.663 10.573 6.282 10.573 13.226 0 20.8-35.445 21.183-43.524zm4.921-12.787l12.284.035c-6.7 24.485-13.994 49.637-14.168 53.15-.07 1.44.732 2.108 1.779 2.108 1.676 0 4.816-2.986 8.132-7.694l1.675 1.968c-2.827 4.531-9.632 14.859-17.38 14.824-4.536 0-6.561-2.599-6.281-8.08.069-1.405.384-2.74.558-4.039h-.349c-4.502 6.639-10.853 12.119-18.357 12.119-9.667 0-14.378-8.22-13.82-19.18.803-16.546 15.775-45.211 34.236-45.211 5.968 0 8.655 3.653 9.981 5.621l1.71-5.621zm27.186-26.979c4.921-.492 19.299-2.459 21.079-2.459.593 0 .942.281.907 1.194-.07 1.019-1.326 5.2-2.373 8.993-9.457 35.164-19.543 68.783-19.718 72.331-.069 1.299.594 2.213 1.92 2.213 3.804 0 7.329-6.78 8.62-8.888l2.198 1.581c-2.233 4.426-8.55 16.405-18.915 16.405-5.13 0-7.852-2.74-7.608-7.553.489-9.765 19.823-71.171 20.102-76.756.175-3.653-2.094-4.04-6.84-4.18l.628-2.881zm31.723 59.965c8.131-2.846 23.626-10.539 24.22-22.412.139-3.127-1.536-5.586-4.607-5.586-9.772 0-17.903 19.778-19.613 27.998zm26.802 17.213c-5.688 6.92-15.355 14.227-26.313 14.192-10.365 0-16.682-7.307-16.054-19.953 1.047-21.745 19.09-44.438 37.691-44.403 8.55 0 14.099 3.654 13.715 11.452-.803 16.44-25.581 23.607-36.923 26.452-.454 2.354-.837 4.813-.942 6.92-.349 7.167 2.757 11.733 9.562 11.733 4.293 0 10.609-2.74 16.682-9.66l2.582 3.267zm14.867-47.564c10.749-2.354 18.985-9.134 23.208-19.953h3.804l-5.026 18.899h12.25l-1.431 6.007h-12.354c-5.619 20.339-12.25 41.944-12.459 45.492-.07 1.545.802 2.74 2.233 2.74 2.373 0 5.933-3.794 10.226-9.661l2.128 1.967c-3.14 4.673-11.062 16.3-20.485 16.265-5.723 0-8.201-2.459-7.887-7.799.349-5.866 7.538-28.7 13.122-49.004l-8.446-.035 1.117-4.918zm36.678 0c10.749-2.354 19.02-9.134 23.208-19.953h3.804l-5.025 18.899h12.284l-1.431 6.007h-12.389c-5.584 20.339-12.249 41.944-12.424 45.492-.105 1.545.768 2.74 2.199 2.74 2.408 0 5.967-3.794 10.225-9.661l2.164 1.967c-3.141 4.673-11.098 16.265-20.521 16.265-5.688 0-8.166-2.459-7.852-7.799.314-5.866 7.503-28.7 13.087-49.004h-8.445l1.116-4.953zm56.746-32.424c4.153 0 7.503 3.794 7.363 8.36-.104 4.567-3.664 8.361-7.817 8.361-4.153 0-7.503-3.794-7.364-8.361.105-4.566 3.665-8.36 7.818-8.36zm-20.87 32.88c9.981-1.299 19.683-3.267 21.219-3.267.698 0 1.43.246 1.396.914-.035.913-.524 2.213-1.327 4.953-.907 3.548-12.284 41.065-12.423 46.827-.07 2.213.628 2.74 1.954 2.74 3.315 0 6.7-6.675 7.957-8.783l2.198 1.441c-2.128 4.32-8.166 16.475-18.496 16.475-4.641 0-7.398-2.986-7.259-7.974.21-7.447 11.272-43.384 11.342-46.265.105-3.407-2.129-4.04-7.259-4.18l.698-2.881zm-317.577-50.62c1.326 0 2.477-.14 2.477-1.686 0-1.335-1.256-1.476-2.338-1.476h-2.129v3.162h1.99zm-1.99 6.147h-1.745v-10.82h4.084c2.582 0 3.908.914 3.908 3.092 0 1.967-1.186 2.775-2.792 2.95l3.002 4.778h-1.99l-2.791-4.637h-1.676v4.637zm1.92-13.665c-4.188 0-7.434 3.302-7.434 8.08 0 4.426 2.827 8.044 7.434 8.044 4.153 0 7.433-3.267 7.433-8.044 0-4.778-3.28-8.08-7.433-8.08zm0 17.81c-5.549 0-9.528-4.18-9.528-9.73 0-5.902 4.398-9.766 9.528-9.766 5.095 0 9.492 3.864 9.492 9.766 0 5.866-4.397 9.73-9.492 9.73zM161.276.296l-25.86 93.758h101.136L262.412.296H161.276zM26.497 101.922L.637 195.681h101.136l25.86-93.759H26.497z" fill="#fff"/><path d="M487.194 147.309c-.628.737-1.396 1.299-2.303 1.616-.873.316-1.78.456-2.757.456-2.827 0-5.026-.632-6.561-1.897-1.571-1.264-2.339-3.091-2.339-5.515 0-1.37.28-2.67.768-3.864.524-1.229 1.222-2.318 2.164-3.267.942-.913 2.094-1.651 3.455-2.213 1.361-.562 2.896-.843 4.572-.843 1.186 0 2.303.14 3.315.351 1.047.246 1.919.597 2.687 1.089a5.87 5.87 0 011.85 1.862c.453.738.663 1.651.663 2.67h-4.397c-.07-1.019-.454-1.757-1.152-2.213-.733-.422-1.71-.633-2.932-.633-1.116 0-2.093.211-2.931.633-.838.456-1.536 1.018-2.059 1.686a6.775 6.775 0 00-1.187 2.283 7.685 7.685 0 00-.383 2.459c0 .597.069 1.124.244 1.651.174.527.453.984.837 1.37.349.422.838.738 1.396.984a5.86 5.86 0 002.059.351c.838 0 1.571-.105 2.164-.281a5.221 5.221 0 001.605-.738 4.258 4.258 0 001.082-1.159c.279-.457.524-.913.698-1.475h-4.606l.698-2.74h8.515l-2.303 9.098h-2.792v-1.721h-.07zm19.718-15.106c.907-.035 1.745.035 2.477.211.733.141 1.361.386 1.885.738a3.54 3.54 0 011.221 1.37c.28.562.419 1.264.419 2.072 0 .562-.105 1.124-.349 1.651a4.357 4.357 0 01-.942 1.37 5.362 5.362 0 01-1.466.984 5.36 5.36 0 01-1.849.527v.035c.802.246 1.361.597 1.64 1.159.279.527.419 1.16.419 1.827 0 .386 0 .808-.07 1.335-.035.527-.07 1.054-.07 1.581 0 .386.035.737.07 1.089.035.316.104.632.209.878h-4.292c-.035-.211-.105-.422-.14-.597-.035-.176-.035-.352-.035-.527 0-.597.035-1.159.105-1.721.07-.563.105-1.16.105-1.722 0-.386-.07-.737-.21-.983a1.486 1.486 0 00-.593-.633 3.063 3.063 0 00-.907-.316c-.349-.07-.768-.07-1.187-.07h-4.153l-1.64 6.569h-4.397l4.187-16.827h9.563zm-2.967 7.588c.594 0 1.187-.035 1.71-.14.559-.106 1.047-.246 1.466-.457a2.97 2.97 0 001.012-.843c.244-.316.349-.738.349-1.195 0-.456-.07-.843-.244-1.124a1.79 1.79 0 00-.733-.597 2.855 2.855 0 00-1.047-.281c-.384-.07-.803-.07-1.221-.07h-4.188l-1.187 4.707h4.083zm11.098-1.686a9.686 9.686 0 012.164-3.267c.942-.913 2.094-1.651 3.455-2.213 1.361-.562 2.896-.843 4.571-.843 1.361 0 2.583.176 3.7.492 1.081.281 2.024.737 2.791 1.37a6.2 6.2 0 011.78 2.248c.419.913.628 1.932.628 3.126 0 1.37-.244 2.705-.732 3.935a10.018 10.018 0 01-2.094 3.337c-.943.948-2.094 1.721-3.455 2.283-1.361.562-2.897.808-4.677.808-2.826 0-5.025-.632-6.561-1.897-1.57-1.264-2.338-3.091-2.338-5.515 0-1.37.244-2.67.768-3.864zm3.909 5.515c.174.527.453.984.837 1.37.349.422.803.738 1.396.984a5.852 5.852 0 002.059.351c1.082 0 2.024-.246 2.827-.667.803-.422 1.501-.984 2.024-1.651.558-.703.977-1.441 1.221-2.284.28-.843.419-1.651.419-2.459 0-.597-.07-1.159-.244-1.686a3.32 3.32 0 00-.768-1.37c-.349-.386-.803-.702-1.361-.948-.593-.246-1.256-.352-2.094-.352-1.117 0-2.094.211-2.931.633-.838.456-1.536 1.018-2.059 1.686a6.757 6.757 0 00-1.187 2.283 7.686 7.686 0 00-.384 2.459c0 .597.07 1.124.245 1.651zm33.363 1.546a6.703 6.703 0 01-1.815 2.318 7.654 7.654 0 01-2.757 1.441c-1.082.316-2.408.456-3.978.456-.943 0-1.92-.07-2.862-.246a9.423 9.423 0 01-2.548-.843c-.733-.386-1.326-.878-1.779-1.51-.454-.633-.698-1.441-.698-2.354 0-.421.069-.843.139-1.265.105-.421.21-.843.279-1.229l2.443-9.731h4.432l-2.443 9.731c-.034.14-.104.281-.139.492-.035.175-.105.351-.14.562-.035.211-.07.386-.104.562-.035.211-.035.351-.035.492 0 .21.035.456.139.702.105.281.279.527.594.738.279.246.663.422 1.151.597.454.141 1.082.246 1.85.246.907 0 1.64-.105 2.198-.316a3.287 3.287 0 001.362-.808c.349-.351.628-.808.837-1.3.175-.527.349-1.124.524-1.721l2.512-9.977h4.398l-2.443 9.766a14.248 14.248 0 01-1.117 3.197zm15.146-12.963c1.012 0 1.954.071 2.792.246.837.176 1.605.422 2.198.808a4.038 4.038 0 011.466 1.511c.349.632.524 1.405.524 2.318 0 .949-.21 1.757-.663 2.494-.419.738-.978 1.335-1.71 1.862-.698.492-1.536.878-2.478 1.159a11.64 11.64 0 01-2.967.387h-5.444l-1.535 6.042h-4.363l4.153-16.827h8.027zm-1.082 7.904c1.152 0 2.024-.246 2.652-.702.663-.492.977-1.23.977-2.249 0-.421-.069-.772-.244-1.053-.209-.246-.419-.457-.733-.633a4.285 4.285 0 00-1.012-.316c-.349-.035-.733-.07-1.116-.07h-3.77l-1.221 5.023h4.467z" fill="#665D52"/></svg>